<svg width="89" height="89" viewBox="0 0 89 89" fill="none" xmlns="http://www.w3.org/2000/svg">
<g clip-path="url(#clip0)">
<rect width="89" height="89" fill="white"/>
<path d="M91.6247 -2.73169H-2.69409V91.5871H91.6247V-2.73169Z" fill="white"/>
<path d="M73.1918 60.8982C72.9412 59.7211 72.0194 58.7425 70.2593 59.1325L44.4094 64.8398C44.0422 64.9153 43.6599 64.8698 43.3218 64.7104C42.9836 64.5511 42.7087 64.2868 42.5396 63.9586L40.1372 59.2887L70.5436 52.7904C70.9504 52.7074 71.317 52.493 71.5848 52.1815C71.8525 51.8701 72.0058 51.4796 72.0202 51.0726L72.7946 25.0606C73.1301 22.4333 70.9143 22.0692 69.7364 22.314L26.3914 31.4184L22.8326 24.5128C22.3522 23.3146 20.4807 23.8694 20.4807 23.8694L18.5019 24.3763L12.8499 26.1403C11.6839 26.5484 10.7758 27.2641 11.2563 28.7135C11.603 29.754 12.5656 30.4995 13.7067 30.1613L18.8807 28.4961C19.5301 28.4058 20.1283 28.6719 20.4022 29.2298L25.4088 39.3873C25.4088 39.3943 25.4168 39.4006 25.42 39.4069L35.0184 58.9261C35.0385 58.9677 35.0609 59.0046 35.0841 59.0462L39.9858 68.9149C40.1518 69.2489 40.4268 69.5191 40.7673 69.6826C41.1078 69.846 41.4942 69.8935 41.8653 69.8173L46.9904 68.7697C46.8275 69.3539 46.8204 69.9693 46.9698 70.5569C47.1191 71.1445 47.4199 71.6848 47.8433 72.1259C48.2668 72.567 48.7986 72.8942 49.3881 73.0761C49.9775 73.2581 50.6047 73.2887 51.2097 73.1651C51.8147 73.0415 52.3772 72.7677 52.8432 72.3701C53.3093 71.9724 53.6635 71.4642 53.8717 70.894C54.0799 70.3239 54.1353 69.7109 54.0325 69.1137C53.9297 68.5166 53.6723 67.9553 53.2847 67.4836L61.7668 65.6528C61.6156 66.1902 61.5978 66.7552 61.7147 67.3007C61.8255 67.8246 62.0562 68.317 62.3893 68.7408C62.7225 69.1647 63.1494 69.509 63.6379 69.7478C64.1265 69.9866 64.664 70.1136 65.2099 70.1194C65.7558 70.1251 66.296 70.0095 66.7897 69.7811C67.2834 69.5527 67.7178 69.2175 68.0601 68.8008C68.4025 68.384 68.6439 67.8966 68.7663 67.3752C68.8886 66.8538 68.8886 66.3121 68.7663 65.7906C68.644 65.2692 68.4026 64.7818 68.0603 64.3651L71.4709 63.5803C72.6777 63.3355 73.4433 62.0776 73.1918 60.8982Z" fill="#C71712"/>
<path d="M13.1964 49.3414L23.3857 46.8979C23.6646 46.8402 23.9293 46.7281 24.1649 46.568C24.4004 46.4079 24.602 46.203 24.7583 45.9649C24.9146 45.7268 25.0224 45.4603 25.0755 45.1805C25.1287 44.9007 25.1262 44.6132 25.0682 44.3344C24.9501 43.7717 24.6134 43.279 24.1321 42.9645C23.6508 42.65 23.0643 42.5395 22.5016 42.6573L12.3115 45.1009C11.7486 45.218 11.2552 45.5537 10.9397 46.0344C10.6243 46.5151 10.5125 47.1013 10.629 47.6644C10.7471 48.2272 11.0839 48.7201 11.5654 49.0346C12.0469 49.3491 12.6335 49.4594 13.1964 49.3414Z" fill="#C71712"/>
<path d="M29.0168 56.3951L18.829 58.8386C18.5502 58.8964 18.2855 59.0086 18.05 59.1687C17.8145 59.3288 17.6129 59.5338 17.4567 59.7718C17.3004 60.0099 17.1926 60.2764 17.1394 60.5561C17.0862 60.8359 17.0886 61.1233 17.1465 61.4021C17.2049 61.6808 17.3176 61.9452 17.4782 62.1803C17.6388 62.4154 17.8441 62.6166 18.0824 62.7723C18.3208 62.928 18.5874 63.0353 18.8672 63.0879C19.147 63.1406 19.4345 63.1376 19.7131 63.0792L29.9024 60.6357C30.1816 60.5782 30.4467 60.4663 30.6825 60.3063C30.9184 60.1462 31.1203 59.9413 31.2768 59.7031C31.4333 59.4649 31.5413 59.1981 31.5946 58.9181C31.6478 58.6382 31.6454 58.3504 31.5873 58.0714C31.5288 57.7924 31.4159 57.5277 31.255 57.2924C31.0941 57.0571 30.8884 56.8558 30.6497 56.7001C30.4109 56.5444 30.1438 56.4373 29.8636 56.385C29.5834 56.3327 29.2956 56.3361 29.0168 56.3951Z" fill="#C71712"/>
<path d="M28.452 51.1777C28.3935 50.8987 28.2806 50.634 28.1197 50.3986C27.9589 50.1633 27.7532 49.962 27.5144 49.8062C27.2757 49.6505 27.0086 49.5433 26.7284 49.4909C26.4482 49.4384 26.1604 49.4417 25.8815 49.5006L7.82173 53.5862C7.25872 53.7031 6.76519 54.0388 6.44968 54.5196C6.13416 55.0003 6.02249 55.5866 6.13922 56.1497C6.19768 56.4287 6.31057 56.6934 6.47144 56.9288C6.63232 57.1641 6.83801 57.3654 7.07675 57.5212C7.3155 57.6769 7.58261 57.7841 7.86281 57.8365C8.14301 57.889 8.4308 57.8856 8.70972 57.8267L26.7733 53.7412C27.3356 53.6234 27.8282 53.2873 28.1429 52.8067C28.4576 52.3261 28.5688 51.7402 28.452 51.1777Z" fill="#C71712"/>
<path d="M61.2766 32.3057L61.1808 32.1133L61.0048 31.8905L60.9128 31.7768C60.8179 31.6696 60.7156 31.5691 60.6067 31.4761C60.4317 31.3223 60.2427 31.1854 60.042 31.0671L59.5513 32.2098C59.9589 32.4128 60.304 32.7224 60.5499 33.1056L60.6807 33.365L57.7379 34.0193L57.2479 34.1276L57.1919 33.7825L56.9216 32.5604L56.7268 32.8275L56.5173 33.1781C56.4511 33.3214 56.4004 33.4336 56.3654 33.5161C56.3506 33.5481 56.3342 33.587 56.3179 33.6337L56.3856 33.7895L56.4939 34.0061L56.5453 34.1175L56.6372 34.2623L55.4042 34.5093L55.3606 34.401C55.3444 34.3126 55.3379 34.2228 55.3411 34.133L55.3543 33.7436L55.4322 33.0643L55.2546 33.2848L55.0435 33.5964L54.7888 34.0193C54.7615 34.075 54.7421 34.1343 54.7312 34.1954C54.7232 34.2947 54.7329 34.3947 54.76 34.4906L54.7896 34.6549C54.7771 34.6612 54.7553 34.6728 54.7242 34.6908L54.6221 34.7134L54.5341 34.7383L54.4071 34.7663L53.7583 34.9096L53.3042 35L52.9046 35.0615C52.6366 35.0779 52.4847 35.0615 52.4473 35.0187L52.4785 34.9151L52.4964 34.8473L52.5665 34.5911L52.6039 34.3963C52.6558 34.0359 52.6602 33.7553 52.6171 33.5543L51.9465 34.6214L51.9761 34.7866L51.9932 34.9852C51.9722 35.1932 51.8795 35.3147 51.7143 35.3513L51.6061 35.3755L49.9703 35.7369L49.7989 35.7743C49.6041 35.8201 49.3998 35.8038 49.2147 35.7275C49.1467 35.6988 49.0862 35.6548 49.0379 35.5988C48.9897 35.5429 48.955 35.4766 48.9366 35.4051L48.9288 35.342V35.1254L48.9374 35.0436L48.9187 34.9657L48.8774 34.6869L48.8128 34.306L48.784 34.1735L48.1655 35.0896L48.259 35.6621L48.2847 35.8062V35.9402L48.2558 36.0804L48.2442 36.1201L46.4417 36.5197L46.2197 36.5688L46.2049 36.5026C46.1574 36.2884 45.6542 34.9502 45.3481 34.5381C45.0061 34.0793 44.7148 33.7833 44.2038 33.8612C43.7839 33.9258 42.8975 34.415 42.4979 35.3778C42.1926 36.1115 42.2783 36.9933 42.8095 37.4529C43.3921 37.9584 43.7972 37.9748 44.3354 37.9724C44.6589 37.9795 44.9819 37.9437 45.2959 37.8657L45.3286 37.8587C45.3286 37.8587 45.165 38.4453 44.1275 38.5995C43.0899 38.7537 42.4543 38.5785 41.8997 38.4016C41.6754 38.33 41.1659 38.1321 41.1659 38.1321C41.088 38.1641 41.0553 38.2046 41.067 38.256C41.1114 38.3385 41.779 38.9477 42.9146 39.1588C43.9452 39.3504 44.6135 39.1977 45.3294 38.816C46.0078 38.4538 46.1613 38.0791 46.2999 37.6476L46.6746 37.565L48.1468 37.2387L48.4685 36.434C48.5824 36.6269 48.7537 36.7794 48.9584 36.8702C49.159 36.9496 49.3793 36.9643 49.5886 36.9123L50.2055 36.776L51.2696 36.5423C51.356 36.5119 51.7237 36.399 51.8101 36.3258L51.9457 36.184L52.0501 36.0539L52.1124 35.9706L52.2238 36.1435C52.3305 36.2447 52.4224 36.2868 52.4987 36.2697L54.7436 35.7727L54.9345 35.5172L54.9968 35.4393C55.0527 35.4534 55.1024 35.4857 55.1378 35.5312L55.2024 35.6091L55.2655 35.6535L57.0213 35.2641L57.1147 34.9019L57.2947 35.2041L57.9692 35.0545L61.3187 34.3122L61.3623 33.9344L61.416 33.5753L61.4464 33.108L61.4051 32.8922L61.3506 32.5806L61.2766 32.3057ZM44.8721 36.9216C44.3471 37.0494 43.9016 37.1047 43.5292 36.9793C42.9918 36.7986 42.5696 36.2728 42.8726 35.6177C43.0852 35.1581 43.5222 34.9899 43.7505 34.9385C44.432 34.7874 44.7187 35.2882 44.982 35.6933C45.2452 36.0983 45.3714 36.7643 45.3714 36.7643C45.2084 36.8277 45.0417 36.8811 44.8721 36.924V36.9216Z" fill="white"/>
<path d="M59.5596 30.8609L58.5704 30.5938L57.765 31.2449L58.7651 31.5098L59.5596 30.8609Z" fill="white"/>
<path d="M49.9601 33.2491L48.9709 32.9827L48.3586 33.4773L47.6264 33.2802L46.821 33.9314L47.8219 34.1963L48.4256 33.7024L49.1656 33.8987L49.9601 33.2491Z" fill="white"/>
<path d="M36.8755 40.2509L36.9533 40.2439C37.3272 40.2097 37.5991 40.2533 37.7619 40.3748C37.9247 40.4963 38.0454 40.7689 38.1412 41.2013L39.1671 45.8352L34.1982 40.1154L30.9197 40.8414L31.0755 41.5424L31.1534 41.5307C31.6745 41.4583 31.9043 41.4926 32.004 41.5346C32.1309 41.5868 32.2151 41.7161 32.2618 41.9296L33.9568 49.5873C34.0541 50.0251 34.0549 50.3367 33.9607 50.5135C33.8664 50.6903 33.6358 50.8515 33.2877 50.9715L33.2137 50.9972L33.3694 51.6842L36.3645 51.0213L36.2141 50.3421L36.1362 50.3491C35.7623 50.3842 35.4843 50.3374 35.3106 50.2105C35.1369 50.0835 35.0114 49.8078 34.9164 49.3762L33.4972 42.9694L39.9764 50.4044L41.1261 50.1497L39.1009 40.9863C39.0074 40.5633 39.0097 40.2595 39.1063 40.0819C39.2029 39.9043 39.4413 39.7384 39.8012 39.6107L39.8744 39.5842L39.7186 38.8901L36.722 39.5499L36.8755 40.2509Z" fill="white"/>
<path d="M47.3124 45.4698C47.2345 46.3204 47.0491 46.988 46.7609 47.4545C46.6315 47.6749 46.4575 47.8658 46.2502 48.0153C46.0428 48.1647 45.8067 48.2692 45.5567 48.3223C45.316 48.376 45.1952 48.3464 45.136 48.3114C45.0581 48.2685 45.0052 48.1618 44.9686 47.9951L44.2473 44.7392C44.5872 44.7181 44.9228 44.8248 45.1882 45.0383C45.4873 45.272 45.7226 45.6365 45.8893 46.1148L45.9204 46.2059L46.5693 46.0626L45.686 42.0884L45.0433 42.231V42.3182C45.0636 42.8051 44.9865 43.2008 44.8151 43.4929C44.6522 43.7659 44.3973 43.9719 44.0962 44.0739L43.4691 41.2425C43.4029 40.9418 43.4356 40.8367 43.4613 40.8008C43.4979 40.7494 43.6 40.6747 43.8773 40.6139C44.4319 40.4908 44.9203 40.5547 45.3292 40.8024C45.7382 41.0501 46.1237 41.5206 46.4735 42.1975L46.5093 42.2668L47.1395 42.1274L46.4836 39.3894L40.5309 40.7066L40.6665 41.3173L40.7444 41.3064C40.8287 41.2938 40.914 41.2896 40.9991 41.2939C41.0602 41.2972 41.1202 41.312 41.1759 41.3375C41.2343 41.3616 41.2851 41.4008 41.3231 41.4513C41.3682 41.5263 41.3984 41.6094 41.4119 41.6958L42.8919 48.3947C42.9293 48.5645 42.9207 48.6861 42.8647 48.7678C42.8203 48.8317 42.7089 48.9236 42.444 49.014L42.3661 49.0389L42.5024 49.6543L48.5283 48.3207L47.9192 45.2673L47.3217 45.4013L47.3124 45.4698Z" fill="white"/>
<path d="M53.5574 42.7567C53.0362 42.4131 52.4879 42.1127 51.9177 41.8586C51.8227 41.8189 51.7549 41.7885 51.7167 41.7698L51.543 41.6919C49.866 40.8865 49.4399 40.3833 49.3776 40.1029C49.3536 40.0029 49.3539 39.8986 49.3784 39.7987C49.4029 39.6989 49.451 39.6063 49.5185 39.5288C49.6901 39.3289 49.9258 39.1948 50.1853 39.1495C50.6192 39.0529 51.0484 39.165 51.4612 39.4813C51.8741 39.7975 52.2916 40.3381 52.681 41.0805L52.7169 41.1482L53.4631 40.9831L52.7807 37.9141L52.1662 38.0496L52.1498 38.0924C52.1122 38.1959 52.0509 38.289 51.9707 38.3643C51.8947 38.4323 51.8023 38.4796 51.7027 38.5014C51.6466 38.5138 51.4893 38.5154 51.0507 38.4562C50.7337 38.4059 50.4103 38.4109 50.095 38.471C49.4793 38.5946 48.9367 38.9549 48.5838 39.4743C48.4049 39.7281 48.2822 40.0173 48.2241 40.3223C48.1659 40.6274 48.1736 40.9414 48.2465 41.2433C48.3127 41.5382 48.4343 41.8178 48.6048 42.0674C48.7929 42.3377 49.0206 42.5782 49.2802 42.7809C49.5372 42.9803 50.0443 43.2638 50.8318 43.6471C51.0811 43.767 51.279 43.8613 51.4199 43.9275C52.343 44.3948 52.9467 44.7524 53.2115 44.9876C53.4654 45.2112 53.622 45.4511 53.6789 45.7011C53.7088 45.8184 53.7113 45.941 53.686 46.0594C53.6607 46.1777 53.6084 46.2887 53.5332 46.3835C53.372 46.5977 53.1243 46.7426 52.7979 46.8142C52.2939 46.9264 51.7853 46.8142 51.2945 46.484C50.8038 46.1537 50.331 45.6077 49.9119 44.8723L49.8761 44.8085L49.1026 44.9798L49.8145 48.1961L50.4424 48.0566L50.4595 48.0286C50.5442 47.8773 50.6472 47.737 50.7664 47.6111C50.84 47.5449 50.9297 47.4992 51.0266 47.4787C51.0795 47.4678 51.2509 47.4662 51.7736 47.5277C52.1643 47.5805 52.561 47.5676 52.9474 47.4896C53.6306 47.3385 54.1579 46.9926 54.5147 46.4614C54.8714 45.9301 54.9867 45.3008 54.8364 44.6215C54.7551 44.2518 54.603 43.9013 54.3885 43.5894C54.1629 43.2649 53.8815 42.9829 53.5574 42.7567Z" fill="white"/>
<path d="M53.9662 37.7343L54.6166 41.0838L55.2398 40.9459V40.861C55.2242 40.0361 55.2982 39.36 55.4602 38.8506C55.6035 38.4027 55.8123 38.0934 56.0833 37.9283L57.6327 44.9286C57.6934 45.2036 57.6911 45.396 57.6264 45.4988C57.5773 45.5767 57.4496 45.6881 57.1162 45.7808L57.0383 45.8026L57.1731 46.4102L60.7258 45.6258L60.5911 45.0182L60.5132 45.0322C60.1712 45.0883 60.0076 45.0408 59.9305 44.9909C59.8285 44.9255 59.7459 44.7526 59.6844 44.4768L58.1335 37.4742C58.4451 37.5092 58.7676 37.7016 59.0862 38.0475C59.4484 38.4408 59.8012 39.0227 60.1338 39.7767L60.1689 39.8546L60.792 39.7167L59.9679 36.4062L53.9662 37.7343Z" fill="white"/>
<path d="M68.8276 35.3042C68.3455 34.5912 67.7027 34.0013 66.9511 33.5819C66.5929 33.374 66.1986 33.2358 65.789 33.1745C65.1748 33.0821 64.547 33.1622 63.9757 33.4059C63.4045 33.6497 62.9122 34.0475 62.554 34.5548C62.0503 35.2587 61.7158 36.0693 61.5764 36.9236C61.3112 38.8 61.7337 40.709 62.7659 42.2983C63.2527 43.0144 63.8967 43.6098 64.6486 44.0392C65.0125 44.2459 65.4107 44.3852 65.824 44.4505C66.2286 44.5156 66.6418 44.5042 67.0423 44.417C67.441 44.3278 67.8192 44.164 68.1569 43.9341C68.5032 43.6994 68.8045 43.4044 69.0465 43.0632C69.5486 42.3621 69.8809 41.5538 70.017 40.7022C70.2843 38.8183 69.8619 36.9013 68.8276 35.3042ZM64.721 33.913C65.2273 33.8008 65.6472 34.0462 66.0032 34.6623C66.3708 35.2995 66.7735 36.6003 67.2004 38.529C67.6148 40.3984 67.7916 41.7226 67.727 42.4533C67.6646 43.1621 67.3873 43.5609 66.881 43.6731C66.3747 43.7853 65.9549 43.5407 65.5989 42.9238C65.2312 42.2874 64.8348 41.0154 64.4204 39.1443C63.9912 37.2134 63.8081 35.8658 63.8704 35.1336C63.9304 34.4263 64.2085 34.0267 64.721 33.913Z" fill="white"/>
</g>
<defs>
<clipPath id="clip0">
<rect width="89" height="89" fill="white"/>
</clipPath>
</defs>
</svg>
